<svg version="1.1" xmlns="http://www.w3.org/2000/svg" xmlns:xlink="http://www.w3.org/1999/xlink" x="0px" y="0px" width="575px" height="30px" viewBox="0 0 575 30" enable-background="new 0 0 575 30" xml:space="preserve"><path fill="#F26222" d="M541.8,25.4V14.7c0.1-0.1,0.4-0.1,0.7-0.1c0.3,0,0.6,0,0.7,0.1v9.4h5.2c0.1,0.2,0.1,0.4,0.1,0.6	s0,0.5-0.1,0.6H541.8z"></path><path fill="#F26222" d="M552,25.4V14.7c0.1-0.1,0.4-0.1,0.7-0.1c0.3,0,0.6,0,0.7,0.1v9.4h5.2c0.1,0.2,0.1,0.4,0.1,0.6	s0,0.5-0.1,0.6H552z"></path><path fill="#F26222" d="M567,15.6c-2.3,0-4.1,1.3-4.1,4.4c0,3,1.6,4.4,3.9,4.4c1,0,2-0.3,2.7-0.6c0,0.4-0.2,1-0.4,1.3	c-0.7,0.3-1.6,0.6-2.7,0.6c-3.1,0-4.9-2.1-4.9-5.6c0-3.8,2.2-5.8,5.2-5.8c0.9,0,1.8,0.2,2.4,0.5c0.2,0.3,0.4,0.9,0.3,1.4	C568.7,15.8,567.9,15.6,567,15.6z"></path><path fill="#414042" d="M7.9,24.9c-0.3,0.1-0.6,0.2-1.2,0.2s-1-0.1-1.2-0.2V5c0.4-0.1,0.9-0.2,1.7-0.2C8,4.8,8.5,4.9,8.8,5	l7.9,13c0.8,1.4,1.5,2.9,2,4.4h0.1V5.1c0.3-0.1,0.6-0.2,1.2-0.2c0.6,0,1,0.1,1.2,0.2V25c-0.3,0.1-0.8,0.2-1.7,0.2	c-0.8,0-1.3-0.1-1.6-0.2L9.8,11.5C9.1,10.3,8.4,8.8,8,7.4H7.9V24.9z"></path><path fill="#414042" d="M47.1,4.9c0.1,0.3,0.2,0.7,0.2,1.2S47.3,7,47.1,7.2H37v6.4h9.4c0.1,0.3,0.2,0.6,0.2,1.1	c0,0.5-0.1,0.9-0.2,1.2H37v6.8h10.4c0.1,0.3,0.2,0.7,0.2,1.2s-0.1,0.9-0.2,1.2h-13V4.9H47.1z"></path><path fill="#414042" d="M76.1,23.5c0.2-1.4,0.4-2.8,0.7-4l3.7-14.4c0.2-0.1,0.7-0.2,1.3-0.2c0.6,0,1,0.1,1.2,0.2l-5.3,20.1	c-0.4,0.1-1.1,0.2-1.8,0.2s-1.4-0.1-1.8-0.2l-3.2-13.9c-0.3-1.4-0.7-3.1-0.9-4.7h-0.1C69.7,8,69.4,9.9,69,11.3l-3.5,13.9	c-0.4,0.1-1.1,0.2-1.8,0.2c-0.7,0-1.4-0.1-1.8-0.2l-5-20c0.3-0.1,0.6-0.2,1.3-0.2c0.6,0,1.1,0.1,1.4,0.2l3.4,14.2	c0.3,1,0.5,2.7,0.7,4.1h0.1c0.2-1.5,0.4-3,0.7-4.1l3.6-14.5c0.4-0.1,1.1-0.2,1.8-0.2c0.7,0,1.4,0.1,1.8,0.2l3.4,14.5	c0.3,1.3,0.6,2.7,0.8,4.1H76.1z"></path><path fill="#F26222" d="M106.9,5.1c1.6-0.3,3.5-0.5,5.4-0.5c5.4,0,8.7,2.1,8.7,6.7c0,4.7-3.3,6.8-7.8,6.8c-1.1,0-2.8-0.1-3.6-0.2	v7c-0.3,0.1-0.7,0.2-1.3,0.2c-0.6,0-1.1-0.1-1.3-0.2V5.1z M109.6,7.2v8.4c0.8,0.1,2.1,0.3,3.2,0.3c3.5,0,5.5-1.2,5.5-4.3	c0-3.3-2.3-4.6-5.9-4.6C111.4,7,110.4,7,109.6,7.2z"></path><path fill="#F26222" d="M148.7,14.8c0,7.1-3.6,11-9.1,11c-5.8,0-9.1-3.7-9.1-11c0-6.6,3.7-10.5,9.1-10.5	C145.1,4.3,148.7,7.9,148.7,14.8z M139.6,23.3c4.1,0,6.4-3.2,6.4-8.6c0-5-2.5-8.1-6.4-8.1c-4.2,0-6.4,3.1-6.4,8.1	C133.3,20.2,135.6,23.3,139.6,23.3z"></path><path fill="#F26222" d="M165.4,23.3c3.2,0,4.6-1.3,4.6-3.4c0-5.4-10.3-3-10.3-10.1c0-3.6,2.4-5.6,6.4-5.6c1.9,0,3.6,0.4,5,1.4	c0.4,0.7,0.7,1.9,0.5,2.8c-1.5-1.1-3.3-1.8-5.3-1.8c-2.6,0-3.9,1.1-3.9,2.8c0,5,10.2,2.8,10.2,10.1c0,4.7-3.3,6.2-7.2,6.2	c-2.3,0-4.3-0.5-5.7-1.3c-0.5-0.7-0.6-1.9-0.5-2.8C160.8,22.7,163.3,23.3,165.4,23.3z"></path><path fill="#F26222" d="M189,23.3c3.2,0,4.6-1.3,4.6-3.4c0-5.4-10.3-3-10.3-10.1c0-3.6,2.4-5.6,6.4-5.6c1.9,0,3.6,0.4,5,1.4	c0.4,0.7,0.7,1.9,0.5,2.8c-1.5-1.1-3.3-1.8-5.3-1.8c-2.6,0-3.9,1.1-3.9,2.8c0,5,10.2,2.8,10.2,10.1c0,4.7-3.3,6.2-7.2,6.2	c-2.3,0-4.3-0.5-5.7-1.3c-0.5-0.7-0.6-1.9-0.5-2.8C184.3,22.7,186.8,23.3,189,23.3z"></path><path fill="#F26222" d="M207.6,5.1c0.3-0.1,0.7-0.2,1.3-0.2c0.6,0,1,0.1,1.3,0.2v19.9c-0.3,0.1-0.7,0.2-1.3,0.2	c-0.6,0-1.1-0.1-1.3-0.2V5.1z"></path><path fill="#F26222" d="M233.9,14.5c2.5,0.6,4.2,2,4.2,4.9c0,4.2-3.6,5.8-8.3,5.8c-2.4,0-4.7-0.1-6.5-0.2V5.2	c1.7-0.3,3.4-0.5,5.6-0.5c4.7,0,8.1,1.5,8.1,5.3c0,2.4-1.3,3.9-3.1,4.4V14.5z M226,13.5h4c2.7,0,4.4-1.1,4.4-3.2	c0-2.3-2.1-3.3-5.5-3.3c-1.1,0-2.1,0-3,0.2V13.5z M226,22.8c1.1,0.1,2.4,0.1,3.7,0.1c3.7,0,5.8-1.1,5.8-3.5	c0-2.4-2.1-3.6-5.5-3.6h-4V22.8z"></path><path fill="#F26222" d="M249.5,5.1c0.3-0.1,0.7-0.2,1.3-0.2s1,0.1,1.3,0.2v19.9c-0.3,0.1-0.7,0.2-1.3,0.2s-1.1-0.1-1.3-0.2V5.1z"></path><path fill="#F26222" d="M265.2,25.1v-20c0.3-0.1,0.7-0.2,1.3-0.2c0.6,0,1,0.1,1.3,0.2v17.6h9.9c0.1,0.3,0.2,0.7,0.2,1.2	s-0.1,0.9-0.2,1.2H265.2z"></path><path fill="#F26222" d="M288.9,5.1c0.3-0.1,0.7-0.2,1.3-0.2c0.6,0,1,0.1,1.3,0.2v19.9c-0.3,0.1-0.7,0.2-1.3,0.2	c-0.6,0-1.1-0.1-1.3-0.2V5.1z"></path><path fill="#F26222" d="M311.4,7.3v17.7c-0.3,0.1-0.7,0.2-1.3,0.2c-0.6,0-1.1-0.1-1.3-0.2V7.3h-6.3c-0.1-0.3-0.2-0.7-0.2-1.2	s0.1-0.9,0.2-1.2h15.2c0.1,0.3,0.2,0.7,0.2,1.2s-0.1,0.9-0.2,1.2H311.4z"></path><path fill="#F26222" d="M328.6,5.1c0.3-0.1,0.7-0.2,1.3-0.2s1,0.1,1.3,0.2v19.9c-0.3,0.1-0.7,0.2-1.3,0.2s-1.1-0.1-1.3-0.2V5.1z"></path><path fill="#F26222" d="M357.1,4.9c0.1,0.3,0.2,0.7,0.2,1.2s-0.1,0.9-0.2,1.2H347v6.4h9.4c0.1,0.3,0.2,0.6,0.2,1.1	c0,0.5-0.1,0.9-0.2,1.2H347v6.8h10.4c0.1,0.3,0.2,0.7,0.2,1.2s-0.1,0.9-0.2,1.2h-13V4.9H357.1z"></path><path fill="#F26222" d="M374.1,23.3c3.2,0,4.6-1.3,4.6-3.4c0-5.4-10.3-3-10.3-10.1c0-3.6,2.4-5.6,6.4-5.6c1.9,0,3.6,0.4,5,1.4	c0.4,0.7,0.7,1.9,0.5,2.8c-1.5-1.1-3.3-1.8-5.3-1.8c-2.6,0-3.9,1.1-3.9,2.8c0,5,10.2,2.8,10.2,10.1c0,4.7-3.3,6.2-7.2,6.2	c-2.3,0-4.3-0.5-5.7-1.3c-0.5-0.7-0.6-1.9-0.5-2.8C369.4,22.7,371.9,23.3,374.1,23.3z"></path><path fill="#414042" d="M414.2,25.7c-6.1,0-9.8-3.9-9.8-10.4c0-7.2,4.3-11,10.4-11c1.9,0,3.7,0.3,4.9,1c0.4,0.6,0.7,1.7,0.6,2.6	c-1.6-0.8-3.3-1.2-5.1-1.2c-4.7,0-8,2.5-8,8.4c0,5.7,3,8.2,7.4,8.2c1.5,0,3-0.3,4.1-0.8v-6.2h-5.1c-0.1-0.2-0.2-0.6-0.2-1.2	c0-0.5,0.1-0.9,0.2-1.1h7.6v10.1C419.5,25,416.8,25.7,414.2,25.7z"></path><path fill="#414042" d="M433.2,5.1c1.6-0.3,3.5-0.5,5.3-0.5c5.4,0,8.6,1.9,8.6,6.4c0,3-1.5,4.9-3.8,5.8l5.2,8.1	c-0.2,0.2-0.8,0.2-1.4,0.2c-0.8,0-1.3-0.1-1.7-0.2l-4.6-7.5c-0.2,0-0.9,0.1-1.3,0.1c-1,0-2.8-0.1-3.5-0.2v7.7	c-0.3,0.1-0.7,0.2-1.3,0.2s-1.1-0.1-1.3-0.2V5.1z M435.8,7.2v7.7c0.8,0.1,2.1,0.3,3.2,0.3c3.5,0,5.4-1.1,5.4-4	c0-3-2.3-4.3-5.9-4.3C437.6,7,436.7,7,435.8,7.2z"></path><path fill="#414042" d="M476.2,14.8c0,7.1-3.6,11-9.1,11c-5.8,0-9.1-3.7-9.1-11c0-6.6,3.7-10.5,9.1-10.5	C472.5,4.3,476.2,7.9,476.2,14.8z M467.1,23.3c4.1,0,6.4-3.2,6.4-8.6c0-5-2.5-8.1-6.4-8.1c-4.2,0-6.4,3.1-6.4,8.1	C460.7,20.2,463,23.3,467.1,23.3z"></path><path fill="#414042" d="M490.3,17.7c0,4,1.7,5.7,5.2,5.7c3.8,0,5.4-2.3,5.4-5.7V5.1c0.3-0.1,0.7-0.2,1.3-0.2c0.6,0,1,0.1,1.3,0.2	v12.3c0,5.1-2.5,8.4-8.1,8.4c-5.2,0-7.7-2.6-7.7-7.8V5.1c0.3-0.1,0.7-0.2,1.3-0.2c0.6,0,1,0.1,1.3,0.2V17.7z"></path><path fill="#414042" d="M516.2,5.1c1.6-0.3,3.5-0.5,5.4-0.5c5.4,0,8.7,2.1,8.7,6.7c0,4.7-3.3,6.8-7.8,6.8c-1.1,0-2.8-0.1-3.6-0.2	v7c-0.3,0.1-0.7,0.2-1.3,0.2c-0.6,0-1.1-0.1-1.3-0.2V5.1z M518.9,7.2v8.4c0.8,0.1,2.1,0.3,3.2,0.3c3.5,0,5.5-1.2,5.5-4.3	c0-3.3-2.3-4.6-5.9-4.6C520.7,7,519.7,7,518.9,7.2z"></path></svg>